<?xml version="1.0" encoding="utf-8"?>
<svg width="18px" height="18px" viewBox="0 0 1024 1024" class="icon" version="1.1" xmlns="http://www.w3.org/2000/svg">
  <g transform="translate(0, 80)">
    <path d="M993.763 493.538v35c0 13.331-6.04 26.664-18.135 37.137-140.149 121.422-280.35 242.795-420.49 364.219-11.813 10.237-25.813 15.501-42.454 15.501v-35c16.644 0 30.641-5.264 42.454-15.501C695.28 773.47 835.474 652.092 975.628 530.677c12.095-10.475 18.135-23.803 18.135-37.139z" fill="#5E95C8" />
    <path d="M30.239 528.367v-3.5-1.75-3.5-3.5-1.75-3.5-3.5-1.75-3.5-3.5-1.75-3.5c0 14.707 6.701 29.313 19.037 40.019 138.449 120.064 277.049 239.996 415.562 360.02 13.002 11.26 28.74 16.466 47.853 16.994v35c-19.108-0.528-34.851-5.734-47.853-16.994C326.325 808.382 187.725 688.45 49.276 568.386c-12.337-10.705-19.037-25.312-19.037-40.019z" fill="#5E95C8" />
    <path d="M510.786 76.601c16.263 0 32.546 5.362 44.946 16.097 139.949 121.188 279.9 242.376 419.818 363.586 24.241 20.995 24.295 53.413 0.079 74.396C835.48 652.101 695.28 773.478 555.141 894.898c-11.814 10.238-25.813 15.502-42.451 15.502-19.109-0.528-34.853-5.734-47.854-16.994C326.324 773.382 187.724 653.45 49.275 533.386c-19.581-16.987-24.96-43.81-11.895-65.251 3.919-6.438 8.669-11.829 14.465-16.849C189.954 331.734 328.024 212.152 466.107 92.567c12.296-10.64 28.478-15.966 44.679-15.966z" fill="#8FBFE7" />
    <path d="M466.28 309.432c-17.405 17.336-32.474 36.087-45.023 57.492-14.292-5.891-28.345-11.688-43.396-17.886 26.612-19.973 55.672-33.101 88.815-39.606zM557.424 309.485c33.072 6.424 62.133 19.588 88.732 39.51-14.815 6.146-28.858 11.958-43.323 17.956-12.589-21.256-27.559-40.095-45.409-57.466zM498.596 314.671v65.603c-17.146-0.645-33.756-2.995-50.701-6.731 13.274-21.912 29.846-41.188 50.701-58.872zM587.764 396.283c10.142 22.33 16.108 46.049 17.842 70.919h-80.47V404.27c20.766-2.653 41.34-5.273 62.628-7.987zM605.525 490.327c-1.343 22.608-6.653 44.38-15.172 64.869-21.973-2.89-43.433-5.709-65.276-8.582v-56.288l80.448 0.001zM712.957 490.317c-3.396 36.218-18.052 68.266-43.021 96.254l-53.043-23.439c3.35-11.639 7.45-23.63 10.142-35.861 2.683-12.125 3.94-24.485 5.866-36.953l80.056-0.001z" fill="#CBE2F6" />
    <path d="M511.885 281.036c126.157 0.21 228.711 90.665 228.368 198.379-0.33 106.476-102.102 197.148-228.55 197.148-126.286-0.394-229.817-90.736-227.933-197.986-1.65-107.031 101.962-197.531 228.115-197.541z m-154.097 85.593c-27.405 28.826-43.474 62.373-47.123 100.678h80.88c1.291-27.351 7.39-53.661 18.275-78.442-17.428-7.449-34.492-14.746-52.032-22.236m355.209 100.529c-3.791-38.304-19.789-71.818-47.154-100.521-17.561 7.499-34.635 14.797-52.035 22.225 10.919 24.81 16.986 51.138 18.278 78.294 27.102 0.002 53.827 0.002 80.911 0.002m-402.352 23.143c3.559 36.437 18.143 68.5 43.103 96.26 18.325-8.101 35.905-15.878 53.696-23.753-9.485-23.157-14.658-47.437-15.917-72.507h-80.882m359.29 96.27c24.972-27.988 39.628-60.035 43.022-96.254H632.9c-1.926 12.466-3.186 24.826-5.866 36.953-2.691 12.231-6.795 24.227-10.141 35.861 17.38 7.682 34.969 15.452 53.042 23.44M557.281 648.2c35.472-7.01 66.186-21.511 94.016-43.622-15.744-6.782-30.461-13.129-45.49-19.605-12.993 23.726-29.162 44.353-48.526 63.227m-184.958-43.596c27.971 22.084 58.564 36.619 93.944 43.524-19.403-18.892-35.48-39.561-48.474-63.167-15.128 6.542-29.855 12.896-45.47 19.643m126.193-137.332v-62.984c-20.906-2.678-41.47-5.307-62.607-8.012-10.153 22.338-16.249 46.169-17.813 70.997l80.42-0.001m26.622-63.001v62.932h80.471c-1.733-24.871-7.701-48.59-17.845-70.918-21.289 2.714-41.864 5.332-62.626 7.986m-0.062 86.056v56.289c21.845 2.871 43.304 5.689 65.276 8.58 8.519-20.487 13.83-42.262 15.171-64.869h-80.447m-107.07 0c1.653 22.758 6.684 44.596 15.313 64.841 22.207-2.906 43.646-5.699 65.106-8.511v-56.331l-80.419 0.001m48.272-180.893c-33.143 6.503-62.203 19.632-88.813 39.606 15.05 6.198 29.103 11.994 43.396 17.886 12.557-21.405 27.686-40.156 45.417-57.492m179.878 39.563c-26.602-19.921-55.66-33.085-88.734-39.51 17.854 17.371 32.821 36.209 45.411 57.465 14.465-5.997 28.506-11.811 43.323-17.957M500.604 346.426v-65.602c-23.072 6.505-45.118 17.79-66.222 33.736l66.222-68.92h80.468c-1.116 13.961-3.286 27.078-6.558 39.253z" fill="#FFFFFF" />
  </g>
</svg>
